<?xml version="1.0" encoding="utf-8"?>
<!-- Generator: Adobe Illustrator 24.0.0, SVG Export Plug-In . SVG Version: 6.00 Build 0)  -->
<svg version="1.1" id="Layer_1" xmlns="http://www.w3.org/2000/svg" xmlns:xlink="http://www.w3.org/1999/xlink" x="0px" y="0px"
	 viewBox="0 0 255.1 255.1" style="enable-background:new 0 0 255.1 255.1;" xml:space="preserve">
<style type="text/css">
	.st0{fill-rule:evenodd;clip-rule:evenodd;fill:#989899;}
	.st1{fill-rule:evenodd;clip-rule:evenodd;fill:#151616;}
	.st2{fill-rule:evenodd;clip-rule:evenodd;fill:#B6006E;}
</style>
<g>
	<path class="st0" d="M127.6,93.6c19.6,0,35.4,15.9,35.4,35.4c0,8.4-2.9,16.2-7.8,22.2c-0.2-0.2-0.4-0.5-0.6-0.7l-7.3-7.4l5.2-2.6
		c0.9-0.4,1.8-0.8,2.1-1.9c0.3-1.2-0.2-2.2-1.1-2.8l-24.5-8.8c-1.2-0.4-2.3,0.1-2.9,0.9c-0.7,1-0.4,2,0,3l7.5,22.3
		c0.4,1.2,0.5,2,1.8,2.5c1.3,0.5,2.3-0.2,3.1-1.3l3-5.8l8.2,8c-6.1,4.9-13.8,7.8-22.2,7.8c-19.6,0-35.4-15.9-35.4-35.4
		C92.1,109.5,108,93.6,127.6,93.6L127.6,93.6z M127.8,106.3c-1.2,0.5-0.9,2-0.9,3.8c0,1.2-0.2,10.6,0,11.2c0.4,1.1,2.4,1.2,2.4-0.8
		l0-13.4C129.1,106.6,128.4,106.1,127.8,106.3L127.8,106.3z M117.8,127.9l-9-0.1c-1.6,0-3.4-0.3-3.8,0.7c-0.3,0.6,0,1.3,0.4,1.6
		c0.4,0.3,1.7,0.2,2.2,0.2l11.2,0.1c0.8,0,1.4-0.1,1.7-0.7c0.3-0.7,0-1.4-0.5-1.7C119.4,127.8,118.5,127.9,117.8,127.9L117.8,127.9z
		 M114.8,115.3c-0.5,0.2-0.8,0.7-0.8,1.3c0.1,0.6,0.5,0.9,0.8,1.2l5.3,5.4c1.4,1.4,2.5,0.2,2.4-0.8c-0.1-0.5-0.5-0.9-0.9-1.2
		l-5.3-5.4C116.1,115.4,115.5,114.9,114.8,115.3L114.8,115.3z M139.7,116.5c-0.9,0.2-1.1,0.7-2.1,1.6l-3.8,3.7
		c-0.8,0.8-0.2,2.3,1.1,2.1l5.8-5.4C141.5,117.7,140.7,116.3,139.7,116.5L139.7,116.5z M120.7,134.8c-0.7,0.3-3.3,3-3.9,3.6
		l-1.9,1.9c-0.6,1,0.4,2.1,1.5,1.8l5.7-5.5C122.7,135.6,121.8,134.3,120.7,134.8L120.7,134.8z M120.7,134.8"/>
	<path class="st1" d="M61.2,193.3l3.5-5v5h4.5v-11.8h-4.5l-3.5,5v-5h-4.5v11.8H61.2z M75.7,193.3v-4.1h2.6v4.1h4.8v-11.8h-4.8v3.9
		h-2.6v-3.9h-4.8v11.8H75.7z M92,193.3v-8h3.2v-3.8H84v3.8h3.1v8H92z M102,193.6c2.2,0,3.8-0.4,4.9-1.1v-3.5
		c-1.1,0.6-2.4,0.9-3.8,0.9c-1.4,0-2.7-0.5-3.1-1.4h7.5v-1.1c0-1.9-0.5-3.4-1.6-4.4c-1.1-1.1-2.5-1.7-4.1-1.7
		c-1.9,0-3.4,0.6-4.6,1.8c-1.2,1.2-1.7,2.6-1.7,4.4c0,1.9,0.6,3.4,1.9,4.5C98.6,193,100.1,193.6,102,193.6L102,193.6z M99.9,186.2
		c0.2-1.1,0.7-1.7,1.6-1.7c0.8,0,1.5,0.6,1.5,1.7H99.9z M113.3,192c0.7,1.1,1.8,1.6,3.2,1.6c1.5,0,2.7-0.6,3.7-1.8
		c1-1.2,1.5-2.6,1.5-4.4c0-1.8-0.5-3.3-1.5-4.4c-1-1.2-2.2-1.8-3.7-1.8c-1.4,0-2.5,0.5-3.2,1.6v-1.3h-4.8v16.3h4.8V192z
		 M113.3,186.1c0.3-0.6,1-0.8,1.8-0.8c1.2,0,1.9,1,1.9,2.2s-0.8,2.2-1.9,2.2c-0.9,0-1.5-0.3-1.8-0.9V186.1z M127.5,193.3v-4.1h2.6
		v4.1h4.8v-11.8h-4.8v3.9h-2.6v-3.9h-4.8v11.8H127.5z M142.5,193.6c2.2,0,3.8-0.4,4.9-1.1v-3.5c-1.1,0.6-2.4,0.9-3.8,0.9
		c-1.4,0-2.7-0.5-3.1-1.4h7.5v-1.1c0-1.9-0.5-3.4-1.6-4.4c-1.1-1.1-2.5-1.7-4.1-1.7c-1.9,0-3.4,0.6-4.6,1.8
		c-1.2,1.2-1.7,2.6-1.7,4.4c0,1.9,0.6,3.4,1.9,4.5C139.1,193,140.7,193.6,142.5,193.6L142.5,193.6z M140.4,186.2
		c0.2-1.1,0.7-1.7,1.6-1.7c0.8,0,1.5,0.6,1.5,1.7H140.4z M156.2,193.3v-8h3.2v-3.8h-11.1v3.8h3.1v8H156.2z M156.2,193.3"/>
	<path class="st1" d="M121.2,209.6v-8h2.5v8h4.8v-11.8h-12.1v11.8H121.2z M135,208.3c0.7,1.1,1.8,1.6,3.2,1.6c1.5,0,2.7-0.6,3.7-1.8
		c1-1.2,1.5-2.6,1.5-4.4c0-1.8-0.5-3.3-1.5-4.4c-1-1.2-2.2-1.8-3.7-1.8c-1.4,0-2.5,0.5-3.2,1.6v-1.3h-4.8v16.3h4.8V208.3z
		 M134.9,202.4c0.3-0.6,1-0.8,1.8-0.8c1.2,0,1.9,1,1.9,2.2c0,1.2-0.8,2.2-1.9,2.2c-0.9,0-1.5-0.3-1.8-0.9V202.4z M150.5,209.9
		c2.2,0,3.8-0.4,4.9-1.1v-3.5c-1.1,0.6-2.4,0.9-3.8,0.9s-2.7-0.5-3.1-1.4h7.5v-1.1c0-1.9-0.5-3.3-1.6-4.4c-1.1-1.1-2.5-1.7-4.1-1.7
		c-1.9,0-3.4,0.6-4.6,1.8c-1.2,1.2-1.7,2.6-1.7,4.4c0,1.9,0.6,3.4,1.9,4.5C147.1,209.3,148.7,209.9,150.5,209.9L150.5,209.9z
		 M148.4,202.5c0.2-1.1,0.7-1.7,1.6-1.7c0.8,0,1.5,0.6,1.5,1.7H148.4z M161.3,209.6V204l1.8,2.6h1.9l1.7-2.6v5.6h4.3v-11.8h-4.5
		l-2.5,3.7l-2.5-3.7H157v11.8H161.3z M177.2,209.6l3.5-5v5h4.5v-11.8h-4.5l-3.5,5v-5h-4.5v11.8H177.2z M191,209.6l2.1-3.5h0.5v3.5
		h4.8v-11.8h-6.6c-1.7,0-3,0.4-3.8,1.2c-0.8,0.8-1.2,1.7-1.2,2.9c0,1.5,0.6,2.6,1.9,3.4l-3,4.3H191z M192.5,203.1
		c-0.6,0-1.1-0.4-1.1-0.9c0-0.5,0.4-0.9,1.1-0.9h1.1v1.8H192.5z M192.5,203.1"/>
	<path class="st2" d="M164.6,46.1c-4.8,0-8.8,1.6-12,4.8c-3.2,3.1-4.8,6.8-4.8,11.1c0,4.5,1.5,8.1,4.7,10.9c3.1,2.7,7,4.1,11.6,4.1
		c4.8,0,8.8-1.6,12-4.8c3.2-3.2,4.9-6.9,4.9-11.2c0-4.4-1.6-8-4.7-10.7c-1.4-1.3-3-2.2-4.7-2.9l-2.3,14.2c-0.4,3-2.6,5.2-5.3,5.2
		c-2.6,0-4.6-1.6-4.6-4.5c0-3.5,2.3-6,5.3-6c1.1,0,2.1,0.3,2.9,0.8l1.7-10.4C167.7,46.3,166.2,46.1,164.6,46.1L164.6,46.1z
		 M125.2,74.6c0.4,0.3,0.9,0.7,1.5,1c1.5,0.9,3.4,1.3,5.3,1.3c3.1,0,5.9-0.9,8.2-2.7c2.3-1.8,4-4,5.1-6.5c1.1-2.6,1.6-5.3,1.6-8.1
		c0-3.8-1.1-7-3.2-9.6c-2.1-2.6-4.8-3.9-8.1-3.9c-1.9,0-3.6,0.5-5.2,1.3c-1.5,0.9-2.6,1.8-3.1,2.7l2.1-13.8h-12l-6.2,39.8h11.2
		l2-12.4l0.4-2.7c0.5-2.8,2.6-4.8,5.2-4.8c2.7,0,4.7,1.6,4.7,4.5c0,3.5-2.4,6.1-5.4,6.1c-1.1,0-2.1-0.3-2.8-0.8L125.2,74.6z
		 M113.4,46.8h-12l-4.6,29.3h11.9L113.4,46.8z M77.2,68.1c0,5.5,4,8.8,9.5,8.8c3.1,0,5.8-0.7,8-2l1.5-9.3c-1.4,0.7-2.7,1.1-4.1,1.1
		c-1.6,0-2.4-0.6-2.4-1.9c0-0.2,0.1-0.8,0.2-1.8l1-6.8h6.7l1.5-9.4h-6.6l1.1-7H81.5l-1.1,7h-4.7l-1.5,9.4h4.6l-1.5,9.7
		C77.3,67,77.2,67.7,77.2,68.1L77.2,68.1z M108.6,31.8c3.8,0,6.8,3,6.8,6.8c0,3.8-3,6.8-6.8,6.8c-3.8,0-6.8-3.1-6.8-6.8
		C101.8,34.8,104.8,31.8,108.6,31.8L108.6,31.8z M108.6,31.8"/>
</g>
</svg>
